HIERARCHY
ROOT pelvis
{
  OFFSET 0 100 0
  CHANNELS 6 Xposition Yposition Zposition Zrotation Xrotation Yrotation
  JOINT pelvis_right_femur
  {
    OFFSET -10.78128 -3.44521 -0.5502486
    CHANNELS 3 Zrotation Xrotation Yrotation
    JOINT right_femur_tibia
    {
      OFFSET -0.8047443 -44.0398 -0.1307829
      CHANNELS 3 Zrotation Xrotation Yrotation
      JOINT right_tibia_foot
      {
        OFFSET 3.006224 -47.83518 -5
        CHANNELS 3 Zrotation Xrotation Yrotation
        End Site
        {
          OFFSET 0 -5 15
        }
      }
    }
  }
  JOINT pelvis_left_femur
  {
    OFFSET 10.78128 -3.44521 -0.5502486
    CHANNELS 3 Zrotation Xrotation Yrotation
    JOINT left_femur_tibia
    {
      OFFSET 0.8047443 -44.0398 -0.1307829
      CHANNELS 3 Zrotation Xrotation Yrotation
      JOINT left_tibia_foot
      {
        OFFSET -4.370144 -48.10324 -4.275266
        CHANNELS 3 Zrotation Xrotation Yrotation
        End Site
        {
          OFFSET 0 -5 15
        }
      }
    }
  }
  JOINT pelvis_spine1
  {
    OFFSET 0 6.468898 -3.129235
    CHANNELS 3 Zrotation Xrotation Yrotation
    JOINT spine1
    {
      OFFSET 0 23.15396 4.99043
      CHANNELS 3 Zrotation Xrotation Yrotation
      JOINT spine2
      {
        OFFSET 0 20.79997 -5.064912
        CHANNELS 3 Zrotation Xrotation Yrotation
        JOINT neck
        {
          OFFSET 0 14.38658 9.616178
          CHANNELS 3 Zrotation Xrotation Yrotation
          End Site
          {
            OFFSET 0 20 0
          }
        }
      }
      JOINT right_manubrium
      {
        OFFSET -5.722621 16.35077 3.967754
        CHANNELS 3 Zrotation Xrotation Yrotation
        JOINT right_clavicle
        {
          OFFSET -13.16364 1.694482 -4.693211
          CHANNELS 3 Zrotation Xrotation Yrotation
          JOINT right_humerus
          {
            OFFSET -28.5034 -0.3100689 -2.792744
            CHANNELS 3 Zrotation Xrotation Yrotation
            JOINT right_radius
            {
              OFFSET -25.15693 0.02248979 -1.271978
              CHANNELS 3 Zrotation Xrotation Yrotation
              End Site
              {
                OFFSET -15 0 0
              }
            }
          }
        }
      }
      JOINT left_manubrium
      {
        OFFSET 5.722621 16.35077 3.967754
        CHANNELS 3 Zrotation Xrotation Yrotation
        JOINT left_clavicle
        {
          OFFSET 13.16364 1.694482 -4.693211
          CHANNELS 3 Zrotation Xrotation Yrotation
          JOINT left_humerus
          {
            OFFSET 29.39168 -1.063119 -2.237045
            CHANNELS 3 Zrotation Xrotation Yrotation
            JOINT left_radius
            {
              OFFSET 24.59957 -0.9528479 0.9047498
              CHANNELS 3 Zrotation Xrotation Yrotation
              End Site
              {
                OFFSET 15 -0 -0
              }
            }
          }
        }
      }
    }
  }
}
MOTION
Frames: 19
Frame Time: 0.0416666666667
0 103.5113 0 0.827966 -1.706184 0.8524881 1.077977 -21.80785 2.973827 -0 34.50091 -0 -4.128969 -5.069468 -3.437986 -6.239415 12.25517 -17.13398 0 -6.000357 0 3.499859 -21.55588 20.54189 -3.587258 -1.486367 2.895 1.482402 8.73438 -7.182986 1.414657 22.16779 7.180416 2.977183 -21.71742 9.045446 3.929304 -18.2898 10.52971 86.90306 31.48081 -17.91226 -0 0 14.32762 -15.04059 9.98428 8.826868 6.329904 -20.06619 -3.544234 -89.06065 26.9337 16.51142 0 0 -19.32409 3.670731 14.26325 9.574845
0.5981478 102.508 3.702253 0.8274426 -1.598571 1.674039 1.106497 -22.10356 2.878216 -0 34.02127 -0 -4.337322 -5.129413 -3.330176 -6.214871 12.39214 -17.22579 0 -6.717806 0 3.800143 -21.66372 20.65208 -3.583896 -1.554391 2.876323 1.516046 8.783899 -7.229581 1.38898 22.13258 7.182221 3.000153 -21.82529 9.027132 3.883016 -18.42562 10.54688 86.96294 31.44127 -17.98356 -0 0 14.37334 -14.9383 9.914682 8.80866 6.390013 -20.20872 -3.580642 -89.11093 26.79445 16.6161 0 0 -19.42031 3.936598 14.41037 9.268762
1.133384 101.5243 7.482725 0.677589 -1.487845 2.385029 1.677951 -23.31189 2.867268 -0 30.87904 -0 -4.630485 -5.380224 -3.493257 -5.974384 13.0881 -16.77324 0 -3.263498 0 3.271476 -21.35621 19.95396 -3.309173 -1.526609 2.840311 1.686978 8.872293 -7.449817 1.388367 22.08614 7.092981 2.985153 -21.86438 8.915988 3.812973 -18.1291 10.59924 87.51304 31.37933 -18.94086 -0 0 13.6309 -14.64214 10.10016 8.435732 6.447972 -20.66884 -3.654938 -88.67278 26.65682 15.87549 0 0 -20.53775 4.161845 14.37756 9.021104
1.602897 100.4173 11.16835 0.4439812 -0.9701697 2.980857 2.32246 -25.40881 2.772527 -0 26.52671 -0 -5.347621 -6.13934 -3.380014 -5.686311 14.11091 -16.76775 0 -2.485306 0 3.575279 -21.53896 19.68357 -3.076823 -1.672381 2.770641 1.981946 8.987087 -7.805343 1.311916 21.91899 7.046338 3.032715 -22.28209 8.811092 3.718498 -18.21915 10.68487 88.04993 31.47909 -20.00347 -0 0 13.18813 -13.87962 10.07503 7.968011 6.66715 -21.39133 -3.720701 -88.49946 26.43398 15.57331 0 0 -21.90662 4.885294 14.71532 8.233985
1.987002 99.19545 14.80323 0.2066681 -0.5610286 3.462825 2.995929 -27.35718 2.707415 -0 22.22457 -0 -6.008326 -6.769848 -3.341905 -5.392365 15.09078 -16.61725 0 -0.8242111 0 3.662999 -21.56672 19.26353 -2.811475 -1.780442 2.707664 2.256709 9.113301 -8.142758 1.252442 21.77794 6.979254 3.06452 -22.60899 8.690063 3.611665 -18.2095 10.76877 88.64465 31.49375 -21.10427 -0 0 12.62136 -13.22556 10.10408 7.505813 6.853805 -22.09841 -3.802617 -88.23703 26.18095 15.12511 0 0 -23.28375 5.544881 14.96356 7.511136
2.283535 97.87078 18.40034 -0.02327106 -0.2055048 3.834632 3.635893 -29.17845 2.625787 -0 18.12299 -0 -6.681386 -7.29798 -3.296014 -5.111974 16.01577 -16.44861 -0 0.7987136 -0 3.776787 -21.55953 18.85768 -2.551643 -1.892345 2.646091 2.510769 9.259368 -8.460873 1.194928 21.64722 6.907723 3.095755 -22.90823 8.561712 3.483488 -18.21697 10.85255 89.24213 31.43161 -22.15005 -0 0 12.06612 -12.64575 10.12308 7.084096 7.034229 -22.80159 -3.903754 -87.98123 25.86033 14.6984 0 0 -24.57758 6.246236 15.20665 6.732364
2.495481 96.50314 22.03571 -0.2037582 -0.0607867 4.105971 4.190464 -30.51731 2.546768 -0 14.80134 -0 -7.200124 -7.507376 -3.334643 -4.879635 16.76515 -16.10894 -0 3.268358 -0 3.62773 -21.3457 18.32827 -2.291683 -1.944265 2.595719 2.691639 9.413888 -8.70293 1.167917 21.57466 6.819903 3.104334 -23.03575 8.428038 3.345192 -18.10226 10.92179 89.82959 31.23107 -23.07179 -0 0 11.42579 -12.32438 10.20691 6.748016 7.145979 -23.38965 -4.02883 -87.64483 25.50355 14.14447 0 0 -25.66034 6.794451 15.31362 6.107035
2.633385 95.17024 25.79981 -0.3187485 -0.159428 4.289585 4.628772 -31.27488 2.45728 -0 12.45354 -0 -7.528236 -7.343603 -3.464095 -4.710078 17.30042 -15.57712 -0 6.657697 -0 3.183604 -20.89613 17.67219 -2.037514 -1.925686 2.558314 2.784025 9.575201 -8.852014 1.176775 21.57066 6.71565 3.087389 -22.96284 8.291705 3.198874 -17.84819 10.97307 90.38794 30.88058 -23.82837 -0 0 10.70038 -12.3063 10.36697 6.517298 7.175817 -23.83178 -4.180262 -87.22463 25.11256 13.45574 0 0 -26.47753 7.14931 15.26721 5.676742
2.710357 93.96616 29.80042 -0.3585922 -0.5349117 4.398713 4.946019 -31.34635 2.368321 -0 11.18345 -0 -7.608707 -6.785059 -3.711932 -4.607137 17.56639 -14.8066 -0 11.24719 -0 2.356646 -20.15171 16.85728 -1.784634 -1.815739 2.540979 2.776495 9.734513 -8.892824 1.229759 21.64591 6.591051 3.038444 -22.65287 8.154348 3.053138 -17.41425 11.00365 90.90197 30.38395 -24.39912 -0 0 9.870559 -12.62963 10.6304 6.399632 7.105002 -24.09094 -4.352727 -86.70579 24.71174 12.59966 0 0 -27.00367 7.233841 15.03019 5.527305
2.740798 92.99219 34.14718 -0.3237824 -1.189097 4.445135 5.152078 -30.65603 2.292323 -0 10.95324 -0 -7.417093 -5.876479 -4.086705 -4.558513 17.48544 -13.77757 -0 17.13327 -0 1.123204 -19.07229 15.89311 -1.528151 -1.606455 2.55537 2.66695 9.885728 -8.81741 1.32922 21.79998 6.442409 2.955037 -22.09838 8.015429 2.912746 -16.79853 11.01511 91.34841 29.75832 -24.76069 -0 0 8.955164 -13.29972 11.00923 6.401204 6.926352 -24.14799 -4.536985 -86.10373 24.31701 11.59689 0 0 -27.22566 7.009399 14.58802 5.704317
2.739437 92.35213 38.94263 -0.2203105 -2.108996 4.436419 5.267591 -29.09164 2.255218 -0 11.64859 -0 -6.931794 -4.723426 -4.591594 -4.533624 16.91786 -12.47837 -0 24.34741 -0 -0.5235149 -17.61261 14.81548 -1.262172 -1.292153 2.623018 2.456291 10.01945 -8.615969 1.475595 22.0266 6.264704 2.834842 -21.30292 7.87344 2.783675 -16.02049 11.01117 91.68437 29.03729 -24.87062 -0 0 8.009595 -14.30945 11.51207 6.532591 6.634274 -23.97911 -4.714693 -85.45743 23.95479 10.51137 0 0 -27.12188 6.435563 13.92524 6.259052
2.722203 92.13975 44.26545 -0.06189929 -3.251146 4.372674 5.318083 -26.50297 2.287289 -0 13.04332 -0 -6.157127 -3.51952 -5.201815 -4.473328 15.64067 -10.92633 -0 32.6907 -0 -2.531154 -15.74454 13.71294 -0.9836896 -0.878542 2.778167 2.150882 10.12602 -8.277913 1.66353 22.30801 6.052875 2.678281 -20.29731 7.724747 2.669147 -15.15037 10.99918 91.83625 28.27374 -24.65167 -0 0 7.158504 -15.62736 12.13216 6.813339 6.230676 -23.56288 -4.857763 -84.8498 23.65665 9.492149 0 0 -26.65116 5.495828 13.04099 7.220422
2.707141 92.41015 50.14186 0.1221388 -4.507893 4.241124 5.337386 -22.75959 2.417711 -0 14.69474 -0 -5.160194 -2.59485 -5.833479 -4.278217 13.35979 -9.199013 -0 41.52509 -0 -4.741479 -13.50602 12.74372 -0.6958453 -0.3955228 3.067972 1.772624 10.19643 -7.80159 1.875581 22.60498 5.805201 2.49237 -19.16983 7.563083 2.568157 -14.34165 10.99223 91.69419 27.55429 -23.99615 -0 0 6.625677 -17.15969 12.83172 7.262069 5.735866 -22.89837 -4.925848 -84.42828 23.46271 8.813676 0 0 -25.76964 4.229103 11.97591 8.561785
2.714759 93.13136 56.50998 0.2807002 -5.678887 4.011112 5.365082 -17.89258 2.650308 -0 15.87907 -0 -4.124904 -2.399577 -6.309402 -3.822547 9.816281 -7.462781 -0 49.55186 -0 -6.834055 -11.07456 12.12542 -0.4125361 0.08510256 3.538634 1.36999 10.23107 -7.212216 2.075051 22.84971 5.529301 2.296708 -18.09677 7.378785 2.469217 -13.85225 11.01039 91.13583 26.99022 -22.80107 -0 0 6.725563 -18.71166 13.52191 7.876466 5.204423 -22.04372 -4.877616 -84.4069 23.39728 8.876718 0 0 -24.47061 2.788135 10.85868 10.13204
2.767388 94.14346 63.20701 0.3555216 -6.513895 3.640551 5.42713 -12.2441 2.935198 -0 15.8327 -0 -3.334098 -3.308242 -6.395615 -3.029296 5.007305 -5.945744 -0 54.98736 -0 -8.363628 -8.786465 12.05292 -0.1618071 0.4544625 4.200579 1.010403 10.24944 -6.571384 2.211311 22.96366 5.247582 2.123738 -17.31217 7.163461 2.348548 -13.97579 11.07384 90.09708 26.66332 -21.03858 -0 0 7.741214 -20.01852 14.0693 8.616122 4.72446 -21.13574 -4.699824 -84.99741 23.41946 10.06459 0 0 -22.82178 1.450475 9.918099 11.63023
2.888144 95.18396 70.01322 0.3252619 -6.86249 3.103864 5.50121 -6.413966 3.176844 -0 14.38023 -0 -3.004171 -5.290845 -5.955339 -1.970863 -0.6449103 -4.836446 -0 56.425 -0 -8.966257 -6.999882 12.57917 0.01713713 0.6189375 4.994699 0.7393 10.2853 -5.95219 2.24771 22.90898 4.993668 2.004861 -16.97671 6.922545 2.183096 -14.85766 11.18591 88.65349 26.5497 -18.81058 -0 0 9.712035 -20.89819 14.35387 9.420342 4.378233 -20.33169 -4.432824 -86.26143 23.39824 12.45961 0 0 -20.93987 0.5034083 9.384376 12.72073
3.100091 95.99311 76.73074 0.2321829 -6.789503 2.418841 5.510022 -0.9188315 3.309503 -0 12.26809 -0 -3.105386 -7.858531 -5.072901 -0.8564288 -6.47748 -4.195293 -0 53.75142 -0 -8.603651 -5.876427 13.58943 0.08774826 0.5663457 5.814371 0.5441625 10.35608 -5.391231 2.189844 22.72297 4.797118 1.949822 -17.05818 6.68358 1.975882 -16.36473 11.32305 86.99545 26.53355 -16.30405 -0 0 12.36912 -21.38536 14.3429 10.25098 4.186867 -19.69232 -4.144568 -88.02941 23.20355 15.71908 0 0 -18.90756 0.04920027 9.320961 13.26191
3.424337 96.40786 83.22898 0.1410939 -6.483155 1.635829 5.380745 4.046261 3.356037 -0 10.5083 -0 -3.421612 -10.46637 -3.962783 0.1176543 -11.98943 -3.965879 -0 48.02676 -0 -7.54999 -5.333386 14.8999 0.03749341 0.3625484 6.574703 0.3805697 10.4438 -4.881299 2.07521 22.48024 4.669213 1.944268 -17.39173 6.481003 1.759859 -18.19775 11.45241 85.29921 26.51963 -13.6929 -0 0 15.33735 -21.64492 14.09845 11.09359 4.108499 -19.16035 -3.874582 -90.0254 22.82412 19.32954 0 0 -16.76393 -0.03801785 9.599077 13.38071
3.874983 96.37496 89.44417 0.08731963 -6.099363 0.8073779 5.103461 8.447588 3.385062 -0 9.603859 -0 -3.751126 -12.81038 -2.817135 0.8595953 -16.9275 -4.042616 -0 40.68166 -0 -6.162644 -5.186225 16.33506 -0.1131829 0.09049026 7.236645 0.2214642 10.51753 -4.411797 1.941743 22.23821 4.603518 1.966552 -17.82102 6.334365 1.571659 -20.07564 11.55446 83.67824 26.48349 -11.1291 -0 0 18.30418 -21.8041 13.72058 11.92004 4.08832 -18.66382 -3.628127 -92.01557 22.3431 22.87076 0 0 -14.58843 0.04590218 10.03658 13.2993
